<svg id="svg" version="1.1" xmlns="http://www.w3.org/2000/svg" xmlns:xlink="http://www.w3.org/1999/xlink" width="400" height="400" viewBox="0, 0, 400,400"><g id="svgg"><path id="path0" d="M200.310 180.063 C 200.380 205.826,200.419 207.986,200.829 209.375 C 202.393 214.665,205.881 218.346,211.037 220.146 L 213.125 220.875 226.375 220.947 C 243.479 221.041,244.809 220.781,249.001 216.528 C 253.251 212.217,253.757 210.129,253.824 196.625 C 253.892 182.849,253.127 180.121,248.125 176.315 C 243.800 173.025,242.257 172.750,228.138 172.750 L 216.750 172.750 216.750 178.500 L 216.750 184.250 227.313 184.256 C 243.355 184.265,242.253 183.335,242.245 196.865 C 242.236 210.478,243.429 209.474,227.250 209.488 C 215.501 209.498,214.811 209.440,213.499 208.336 C 211.756 206.869,211.882 209.049,211.807 179.188 L 211.739 152.250 205.986 152.250 L 200.233 152.250 200.310 180.063 M35.769 173.022 C 30.595 174.037,26.107 177.238,24.148 181.311 C 22.509 184.719,22.509 184.711,22.504 203.813 L 22.500 221.000 28.250 221.000 L 34.000 221.000 34.000 204.303 L 34.000 187.606 34.563 186.496 C 35.684 184.285,34.935 184.385,50.938 184.305 L 65.000 184.234 65.000 178.492 L 65.000 172.750 50.938 172.777 C 43.203 172.792,36.377 172.902,35.769 173.022 M72.003 187.563 C 72.006 201.220,72.044 202.558,72.490 204.716 C 74.136 212.693,80.355 218.689,88.875 220.511 C 92.260 221.235,120.551 221.250,122.139 220.528 C 125.574 218.968,125.500 219.545,125.500 194.264 L 125.500 172.750 119.750 172.750 L 114.000 172.750 114.000 191.125 L 114.000 209.500 102.920 209.500 C 89.710 209.500,89.222 209.419,86.425 206.774 C 83.546 204.050,83.500 203.739,83.500 186.955 L 83.500 172.750 77.750 172.750 L 72.000 172.750 72.003 187.563 M140.463 173.091 C 139.278 173.523,138.314 174.294,137.516 175.447 L 136.875 176.375 136.809 198.688 L 136.742 221.000 142.496 221.000 L 148.250 221.000 148.250 202.615 L 148.250 184.231 159.563 184.303 C 172.737 184.387,172.776 184.393,175.498 186.914 C 178.604 189.789,178.739 190.650,178.745 207.688 L 178.750 221.000 184.517 221.000 L 190.284 221.000 190.186 205.813 C 190.091 191.239,190.065 190.542,189.549 188.569 C 187.557 180.961,182.282 175.735,174.289 173.453 C 171.880 172.765,142.229 172.448,140.463 173.091 M276.875 172.908 C 269.717 174.517,265.584 177.824,263.702 183.449 C 262.935 185.742,262.686 204.735,263.375 208.412 C 264.542 214.642,269.113 219.145,275.757 220.610 C 278.658 221.250,302.960 221.078,305.000 220.403 C 310.446 218.602,313.850 215.435,315.699 210.449 L 316.375 208.625 316.375 197.250 L 316.375 185.875 315.662 183.750 C 313.952 178.655,310.574 175.158,305.791 173.532 L 303.875 172.880 290.625 172.838 C 283.337 172.815,277.150 172.846,276.875 172.908 M323.767 173.938 C 325.137 175.385,327.109 177.532,330.250 180.994 C 331.556 182.434,333.976 185.078,335.627 186.869 C 342.244 194.047,343.299 195.262,343.181 195.570 C 343.113 195.746,337.926 201.490,331.654 208.334 C 325.382 215.178,320.250 220.827,320.250 220.889 C 320.250 220.950,323.781 221.000,328.097 221.000 L 335.943 221.000 342.659 213.689 C 346.353 209.667,349.843 205.873,350.415 205.257 L 351.456 204.136 352.415 205.193 C 352.943 205.774,356.413 209.565,360.125 213.617 L 366.875 220.985 374.866 220.992 L 382.856 221.000 381.716 219.813 C 381.089 219.159,377.325 215.082,373.351 210.752 C 369.377 206.421,364.634 201.268,362.813 199.301 C 359.025 195.210,359.248 195.668,360.409 194.375 C 361.536 193.119,369.767 184.125,375.384 178.011 C 377.727 175.461,379.731 173.234,379.837 173.063 C 379.989 172.815,378.394 172.750,372.170 172.750 L 364.311 172.750 358.719 178.813 C 355.644 182.147,352.730 185.307,352.243 185.836 L 351.359 186.797 344.919 179.773 L 338.479 172.750 330.561 172.750 L 322.644 172.750 323.767 173.938 M303.000 184.881 C 304.933 185.998,305.000 186.399,305.000 196.875 C 305.000 210.667,306.411 209.500,289.736 209.500 L 277.829 209.500 276.746 208.928 C 274.660 207.825,274.636 207.697,274.551 197.375 C 274.466 187.125,274.519 186.700,276.065 185.378 C 277.390 184.243,276.553 184.305,290.125 184.342 C 301.683 184.374,302.157 184.394,303.000 184.881 " stroke="none" fill="#f2f4fb" fill-rule="evenodd"></path><path id="path1" d="M317.875 79.168 C 312.151 79.284,260.206 79.767,228.000 80.004 C 210.194 80.135,185.556 80.357,173.250 80.496 C 160.944 80.636,135.406 80.860,116.500 80.995 C 75.797 81.284,57.800 81.527,59.000 81.772 C 60.878 82.155,65.227 83.070,67.250 83.507 C 69.470 83.988,72.726 84.674,76.750 85.509 C 81.526 86.501,84.172 87.058,86.250 87.509 C 87.419 87.763,89.556 88.212,91.000 88.506 C 92.444 88.801,94.581 89.246,95.750 89.497 C 96.919 89.748,99.056 90.199,100.500 90.500 C 101.944 90.801,104.081 91.251,105.250 91.500 C 106.419 91.749,108.556 92.199,110.000 92.500 C 111.444 92.801,113.581 93.251,114.750 93.500 C 115.919 93.749,118.056 94.199,119.500 94.500 C 120.944 94.801,123.081 95.251,124.250 95.500 C 125.419 95.749,127.556 96.199,129.000 96.500 C 130.444 96.801,132.581 97.251,133.750 97.500 C 134.919 97.749,137.056 98.199,138.500 98.500 C 139.944 98.801,142.081 99.251,143.250 99.500 C 144.419 99.749,146.556 100.199,148.000 100.500 C 149.444 100.801,151.581 101.251,152.750 101.500 C 153.919 101.749,156.056 102.199,157.500 102.500 C 158.944 102.801,161.081 103.251,162.250 103.500 C 163.419 103.749,165.556 104.199,167.000 104.500 C 168.444 104.801,170.581 105.251,171.750 105.500 C 172.919 105.749,175.056 106.199,176.500 106.500 C 177.944 106.801,180.081 107.251,181.250 107.500 C 182.419 107.749,184.556 108.199,186.000 108.500 C 187.444 108.801,189.581 109.251,190.750 109.500 C 191.919 109.749,194.056 110.199,195.500 110.500 C 196.944 110.801,199.081 111.251,200.250 111.500 C 201.419 111.749,203.556 112.199,205.000 112.500 C 206.444 112.801,208.581 113.251,209.750 113.500 C 210.919 113.749,213.056 114.199,214.500 114.500 C 215.944 114.801,218.081 115.251,219.250 115.500 C 220.419 115.749,222.556 116.199,224.000 116.500 C 225.444 116.801,227.581 117.251,228.750 117.500 C 229.919 117.749,232.056 118.199,233.500 118.500 C 234.944 118.801,237.081 119.251,238.250 119.500 C 239.419 119.749,241.556 120.198,243.000 120.499 C 244.444 120.799,246.549 121.260,247.678 121.523 C 248.808 121.785,249.933 122.001,250.178 122.001 C 250.917 122.004,252.500 122.508,252.500 122.741 C 252.500 122.860,251.474 125.077,250.220 127.667 C 248.967 130.256,247.404 133.500,246.748 134.875 C 246.091 136.250,244.742 139.063,243.749 141.125 C 242.757 143.188,241.295 146.225,240.501 147.875 C 239.708 149.525,238.132 152.787,237.001 155.125 C 235.869 157.463,234.406 160.500,233.749 161.875 C 229.776 170.199,228.684 172.387,228.420 172.555 C 228.258 172.658,230.690 172.744,233.826 172.746 C 241.599 172.751,244.339 173.435,248.125 176.315 C 252.559 179.689,253.755 183.063,253.978 192.826 L 254.125 199.277 257.996 194.076 C 263.128 187.182,262.895 187.558,263.229 185.642 C 264.055 180.899,267.035 176.845,271.314 174.644 C 273.030 173.761,273.121 173.662,276.815 168.686 C 278.881 165.902,281.596 162.245,282.848 160.558 C 284.100 158.872,286.250 155.969,287.625 154.108 C 289.000 152.247,291.316 149.127,292.771 147.175 C 295.702 143.244,305.180 130.476,306.913 128.125 C 307.521 127.300,309.168 125.078,310.572 123.188 C 311.976 121.298,314.315 118.148,315.769 116.188 C 317.223 114.228,320.752 109.475,323.610 105.625 C 326.469 101.775,329.305 97.950,329.913 97.125 C 330.521 96.300,332.234 93.994,333.720 92.000 C 338.529 85.547,342.897 79.633,343.091 79.313 C 343.267 79.020,329.188 78.940,317.875 79.168 M211.871 178.750 C 211.871 193.394,211.901 199.384,211.937 192.063 C 211.974 184.741,211.974 172.759,211.937 165.438 C 211.901 158.116,211.871 164.106,211.871 178.750 M216.608 178.500 C 216.608 181.731,216.643 183.053,216.687 181.438 C 216.730 179.822,216.730 177.178,216.687 175.563 C 216.643 173.947,216.608 175.269,216.608 178.500 M71.867 186.375 C 71.867 193.800,71.898 196.801,71.937 193.045 C 71.976 189.288,71.976 183.213,71.937 179.545 C 71.898 175.876,71.867 178.950,71.867 186.375 M323.500 173.828 C 323.500 173.871,323.866 174.237,324.313 174.641 L 325.125 175.375 324.391 174.563 C 323.706 173.805,323.500 173.635,323.500 173.828 M326.250 176.828 C 326.250 176.871,326.616 177.237,327.063 177.641 L 327.875 178.375 327.141 177.563 C 326.456 176.805,326.250 176.635,326.250 176.828 M136.620 199.250 C 136.620 211.281,136.650 216.203,136.687 210.188 C 136.725 204.172,136.725 194.328,136.687 188.313 C 136.650 182.297,136.620 187.219,136.620 199.250 M374.737 178.688 L 373.875 179.625 374.813 178.763 C 375.685 177.962,375.865 177.750,375.674 177.750 C 375.632 177.750,375.210 178.172,374.737 178.688 M371.987 181.688 L 371.125 182.625 372.063 181.763 C 372.935 180.962,373.115 180.750,372.924 180.750 C 372.882 180.750,372.460 181.172,371.987 181.688 M222.611 184.477 C 222.688 184.602,221.894 186.486,220.848 188.664 C 219.801 190.843,218.406 193.750,217.749 195.125 C 213.747 203.498,212.436 206.134,212.234 206.207 C 211.883 206.334,212.646 207.618,213.499 208.336 C 214.811 209.440,215.501 209.498,227.250 209.488 C 243.429 209.474,242.236 210.478,242.245 196.865 C 242.253 183.598,242.892 184.266,230.173 184.256 C 225.622 184.252,222.528 184.343,222.611 184.477 M334.250 185.578 C 334.250 185.621,334.616 185.987,335.063 186.391 L 335.875 187.125 335.141 186.313 C 334.456 185.555,334.250 185.385,334.250 185.578 M366.609 187.563 L 365.875 188.375 366.688 187.641 C 367.445 186.956,367.615 186.750,367.422 186.750 C 367.379 186.750,367.013 187.116,366.609 187.563 M22.368 204.500 C 22.368 213.644,22.399 217.384,22.437 212.813 C 22.476 208.241,22.476 200.759,22.437 196.188 C 22.399 191.616,22.368 195.356,22.368 204.500 M337.750 189.375 C 338.216 189.856,338.654 190.250,338.723 190.250 C 338.792 190.250,338.466 189.856,338.000 189.375 C 337.534 188.894,337.096 188.500,337.027 188.500 C 336.958 188.500,337.284 188.894,337.750 189.375 M363.859 190.563 L 363.125 191.375 363.938 190.641 C 364.695 189.956,364.865 189.750,364.672 189.750 C 364.629 189.750,364.263 190.116,363.859 190.563 M178.617 207.375 C 178.617 214.938,178.648 218.067,178.687 214.330 C 178.726 210.593,178.726 204.406,178.687 200.580 C 178.649 196.755,178.617 199.813,178.617 207.375 M360.000 196.328 C 360.000 196.371,360.366 196.737,360.813 197.141 L 361.625 197.875 360.891 197.063 C 360.206 196.305,360.000 196.135,360.000 196.328 M253.846 202.750 C 253.846 204.469,253.886 205.172,253.935 204.313 C 253.984 203.453,253.984 202.047,253.935 201.188 C 253.886 200.328,253.846 201.031,253.846 202.750 M366.000 202.828 C 366.000 202.871,366.366 203.237,366.813 203.641 L 367.625 204.375 366.891 203.563 C 366.206 202.805,366.000 202.635,366.000 202.828 M350.109 205.563 L 349.375 206.375 350.188 205.641 C 350.945 204.956,351.115 204.750,350.922 204.750 C 350.879 204.750,350.513 205.116,350.109 205.563 M356.500 209.828 C 356.500 209.871,356.866 210.237,357.313 210.641 L 358.125 211.375 357.391 210.563 C 356.706 209.805,356.500 209.635,356.500 209.828 M359.250 212.828 C 359.250 212.871,359.616 213.237,360.063 213.641 L 360.875 214.375 360.141 213.563 C 359.456 212.805,359.250 212.635,359.250 212.828 M341.737 214.688 L 340.875 215.625 341.813 214.763 C 342.685 213.962,342.865 213.750,342.674 213.750 C 342.632 213.750,342.210 214.172,341.737 214.688 M77.000 214.078 C 77.000 214.121,77.366 214.487,77.813 214.891 L 78.625 215.625 77.891 214.813 C 77.206 214.055,77.000 213.885,77.000 214.078 M377.500 215.328 C 377.500 215.371,377.866 215.737,378.313 216.141 L 379.125 216.875 378.391 216.063 C 377.706 215.305,377.500 215.135,377.500 215.328 M312.109 216.313 L 311.375 217.125 312.188 216.391 C 312.634 215.987,313.000 215.621,313.000 215.578 C 313.000 215.385,312.794 215.555,312.109 216.313 M362.000 215.828 C 362.000 215.871,362.366 216.237,362.813 216.641 L 363.625 217.375 362.891 216.563 C 362.206 215.805,362.000 215.635,362.000 215.828 M204.836 221.940 C 203.796 224.104,202.352 227.113,201.627 228.625 C 198.617 234.907,195.330 241.733,191.937 248.750 C 189.893 252.977,187.484 257.988,185.628 261.875 C 184.906 263.387,183.471 266.369,182.440 268.500 C 181.409 270.631,180.055 273.444,179.433 274.750 C 178.811 276.056,177.321 279.150,176.122 281.625 C 174.923 284.100,173.406 287.250,172.751 288.625 C 172.097 290.000,170.691 292.925,169.628 295.125 C 166.025 302.579,162.057 310.813,159.749 315.625 C 156.517 322.362,155.223 325.053,153.500 328.625 C 150.128 335.611,145.728 344.768,145.330 345.625 C 145.160 345.992,146.464 344.481,146.949 343.750 C 147.177 343.406,147.995 342.281,148.766 341.250 C 149.538 340.219,151.334 337.800,152.759 335.875 C 154.183 333.950,157.479 329.506,160.084 326.000 C 162.688 322.494,166.013 318.014,167.472 316.045 C 168.931 314.076,170.644 311.770,171.278 310.920 C 171.913 310.070,173.763 307.575,175.390 305.375 C 177.017 303.175,180.648 298.281,183.459 294.500 C 186.271 290.719,189.595 286.239,190.848 284.544 C 192.100 282.850,193.644 280.769,194.279 279.919 C 194.913 279.070,196.932 276.350,198.765 273.875 C 200.598 271.400,204.230 266.506,206.836 263.000 C 209.443 259.494,212.599 255.240,213.850 253.547 C 215.101 251.854,216.644 249.773,217.279 248.922 C 217.913 248.071,219.932 245.350,221.765 242.875 C 224.617 239.024,229.767 232.091,236.205 223.438 C 237.100 222.234,237.955 221.225,238.104 221.194 C 238.253 221.163,232.694 221.079,225.750 221.007 L 213.125 220.875 211.125 220.176 C 210.025 219.792,208.585 219.146,207.926 218.742 L 206.726 218.006 204.836 221.940 " stroke="none" fill="#4493d3" fill-rule="evenodd"></path><path id="path2" d="M0.000 200.000 L 0.000 400.000 200.000 400.000 L 400.000 400.000 400.000 200.000 L 400.000 0.000 200.000 0.000 L 0.000 0.000 0.000 200.000 M343.587 79.063 C 343.337 79.469,339.534 84.604,322.312 107.791 C 318.772 112.557,313.569 119.571,310.750 123.378 C 307.931 127.184,303.769 132.795,301.500 135.847 C 292.932 147.371,289.454 152.059,284.943 158.156 C 282.388 161.611,278.824 166.412,277.023 168.825 C 273.926 172.976,273.423 173.731,273.993 173.379 C 275.484 172.458,299.016 172.040,303.625 172.853 C 310.343 174.038,314.930 178.683,316.361 185.750 C 317.045 189.128,316.825 207.705,316.075 209.875 C 314.149 215.447,311.098 218.454,305.250 220.544 L 303.625 221.125 289.875 221.125 L 276.125 221.125 274.051 220.423 C 268.804 218.647,265.225 215.200,263.583 210.338 C 262.920 208.378,262.919 208.359,262.772 198.308 L 262.625 188.241 258.375 193.933 L 254.125 199.625 253.973 203.875 C 253.608 214.088,248.456 220.226,239.487 221.133 L 238.098 221.274 235.749 224.449 C 234.456 226.196,231.643 229.988,229.497 232.875 C 227.351 235.762,224.096 240.150,222.262 242.625 C 216.145 250.884,214.325 253.337,210.086 259.038 C 205.500 265.206,199.629 273.119,193.981 280.743 C 190.567 285.353,188.285 288.426,178.662 301.375 C 176.414 304.400,172.911 309.125,170.876 311.875 C 166.956 317.175,162.413 323.295,155.563 332.506 C 153.259 335.603,149.814 340.248,147.906 342.829 C 145.999 345.410,144.392 347.476,144.337 347.420 C 144.249 347.332,146.014 343.589,152.405 330.313 C 153.282 328.491,154.717 325.509,155.593 323.688 C 159.303 315.974,166.954 300.085,168.685 296.500 C 169.714 294.369,171.093 291.500,171.749 290.125 C 172.405 288.750,173.811 285.825,174.875 283.625 C 175.938 281.425,177.456 278.275,178.248 276.625 C 179.040 274.975,180.502 271.938,181.497 269.875 C 182.492 267.813,183.842 265.000,184.498 263.625 C 185.154 262.250,186.616 259.212,187.747 256.875 C 188.878 254.537,191.073 249.981,192.625 246.750 C 194.177 243.519,196.422 238.850,197.614 236.375 C 198.806 233.900,200.512 230.356,201.406 228.500 C 202.299 226.644,203.799 223.550,204.740 221.625 L 206.449 218.125 205.244 217.056 C 203.035 215.098,201.674 212.865,200.716 209.625 L 200.125 207.625 200.125 179.875 L 200.125 152.125 206.061 152.058 L 211.998 151.991 212.061 179.058 L 212.125 206.125 213.716 202.875 C 214.591 201.088,215.845 198.500,216.503 197.125 C 217.160 195.750,218.778 192.389,220.099 189.656 C 221.419 186.922,222.500 184.644,222.500 184.593 C 222.500 184.542,221.150 184.500,219.500 184.500 L 216.500 184.500 216.500 178.500 L 216.500 172.500 222.454 172.500 L 228.408 172.500 229.373 170.438 C 229.904 169.303,231.400 166.181,232.698 163.500 C 233.996 160.819,235.537 157.613,236.124 156.375 C 236.710 155.137,238.116 152.213,239.248 149.875 C 241.223 145.795,242.931 142.247,245.506 136.875 C 246.164 135.500,247.950 131.791,249.474 128.634 C 251.488 124.462,252.159 122.844,251.930 122.716 C 251.643 122.555,248.173 121.786,243.625 120.875 C 242.662 120.682,240.525 120.231,238.875 119.874 C 237.225 119.516,235.088 119.064,234.125 118.870 C 231.354 118.311,223.160 116.589,219.875 115.875 C 218.225 115.517,216.088 115.064,215.125 114.870 C 212.777 114.396,204.592 112.680,200.875 111.883 C 199.225 111.529,196.750 111.010,195.375 110.730 C 194.000 110.449,190.287 109.671,187.125 108.999 C 183.963 108.328,178.900 107.261,175.875 106.628 C 172.850 105.996,168.575 105.095,166.375 104.627 C 161.025 103.489,147.843 100.716,141.500 99.395 C 110.227 92.881,57.081 81.634,56.923 81.497 C 56.812 81.401,64.969 81.245,75.048 81.152 C 85.128 81.059,103.950 80.873,116.875 80.740 C 129.800 80.607,154.213 80.389,171.125 80.255 C 188.037 80.121,220.606 79.836,243.500 79.621 C 351.488 78.607,343.841 78.650,343.587 79.063 M65.000 178.492 L 65.000 184.484 50.938 184.555 C 35.053 184.634,35.786 184.541,34.664 186.625 C 34.129 187.617,34.124 187.765,34.054 204.438 L 33.983 221.250 28.117 221.250 L 22.250 221.250 22.254 203.813 C 22.259 183.364,22.287 183.132,25.253 179.125 C 29.621 173.222,32.205 172.564,51.188 172.527 L 65.000 172.500 65.000 178.492 M83.802 187.563 L 83.875 202.625 84.583 203.970 C 85.535 205.777,87.443 207.634,89.191 208.453 L 90.625 209.125 102.188 209.201 L 113.750 209.277 113.750 190.889 L 113.750 172.500 119.750 172.500 L 125.750 172.500 125.739 194.313 C 125.727 217.635,125.761 216.984,124.485 218.846 C 124.172 219.302,123.401 220.001,122.771 220.400 L 121.625 221.125 105.750 221.125 C 91.394 221.125,89.723 221.083,88.290 220.687 C 78.967 218.110,72.985 211.619,71.999 203.009 C 71.864 201.835,71.753 194.491,71.752 186.688 L 71.750 172.500 77.739 172.500 L 83.728 172.500 83.802 187.563 M172.125 172.867 C 180.577 174.240,186.819 179.434,189.411 187.250 L 190.116 189.375 190.197 205.313 L 190.277 221.250 184.389 221.250 L 178.500 221.250 178.495 207.813 C 178.489 190.699,178.333 189.694,175.253 186.925 C 172.695 184.625,172.762 184.636,159.688 184.551 L 148.250 184.477 148.250 202.863 L 148.250 221.250 142.375 221.250 L 136.500 221.250 136.500 199.174 L 136.500 177.098 137.137 175.819 C 137.858 174.374,139.072 173.332,140.592 172.857 C 142.188 172.357,169.041 172.367,172.125 172.867 M340.939 175.082 C 342.212 176.481,343.618 178.032,344.064 178.529 C 344.510 179.026,346.334 181.029,348.116 182.980 L 351.358 186.527 352.321 185.451 C 352.852 184.859,353.817 183.813,354.467 183.125 C 355.117 182.438,356.987 180.412,358.621 178.625 C 360.256 176.838,362.211 174.728,362.965 173.938 L 364.336 172.500 372.432 172.500 C 380.264 172.500,380.518 172.515,380.202 172.963 C 379.897 173.395,377.507 176.034,373.375 180.500 C 371.992 181.995,368.142 186.192,366.625 187.859 C 363.252 191.564,361.215 193.797,360.565 194.499 C 359.531 195.616,359.408 195.300,361.938 198.033 C 363.926 200.181,367.653 204.232,369.383 206.125 C 369.760 206.537,370.700 207.552,371.472 208.379 C 375.542 212.742,382.886 220.826,382.958 221.023 C 383.007 221.156,379.687 221.250,374.949 221.250 L 366.857 221.250 364.991 219.188 C 363.965 218.054,362.394 216.335,361.500 215.366 C 358.641 212.269,356.933 210.413,354.500 207.761 C 353.194 206.336,351.963 205.006,351.764 204.805 C 351.448 204.484,351.295 204.559,350.535 205.407 C 350.058 205.939,349.039 207.055,348.271 207.886 C 347.503 208.718,345.806 210.570,344.500 212.003 C 343.194 213.436,340.734 216.103,339.034 217.929 L 335.943 221.250 327.847 221.250 C 323.394 221.250,319.750 221.198,319.750 221.134 C 319.750 221.036,326.328 213.817,336.520 202.728 C 342.019 196.746,343.008 195.608,342.944 195.341 C 342.882 195.085,341.726 193.791,336.500 188.125 C 335.215 186.731,331.318 182.480,329.875 180.897 C 328.192 179.050,324.391 174.904,323.567 174.015 C 322.985 173.388,322.507 172.791,322.504 172.688 C 322.502 172.584,326.128 172.509,330.563 172.520 L 338.625 172.540 340.939 175.082 M277.305 184.809 C 274.837 185.614,274.697 186.341,274.797 197.795 C 274.907 210.379,273.244 209.125,289.831 209.125 C 306.429 209.125,304.750 210.503,304.750 196.875 C 304.750 186.365,304.721 186.177,302.961 185.125 C 301.981 184.539,279.001 184.256,277.305 184.809 " stroke="none" fill="#04549c" fill-rule="evenodd"></path><path id="path3" d="M341.196 78.936 C 342.636 78.995,343.214 79.105,343.095 79.299 C 342.990 79.468,343.036 79.507,343.211 79.399 C 343.946 78.945,343.340 78.754,341.313 78.801 L 339.125 78.852 341.196 78.936 M313.938 79.186 C 315.209 79.232,317.291 79.232,318.563 79.186 C 319.834 79.141,318.794 79.104,316.250 79.104 C 313.706 79.104,312.666 79.141,313.938 79.186 M289.188 79.437 C 290.872 79.480,293.628 79.480,295.313 79.437 C 296.997 79.393,295.619 79.358,292.250 79.358 C 288.881 79.358,287.503 79.393,289.188 79.437 M261.578 79.687 C 263.752 79.729,267.240 79.729,269.328 79.687 C 271.416 79.645,269.637 79.611,265.375 79.611 C 261.113 79.611,259.404 79.645,261.578 79.687 M232.671 79.937 C 235.309 79.978,239.696 79.978,242.421 79.937 C 245.146 79.897,242.988 79.864,237.625 79.864 C 232.262 79.864,230.033 79.897,232.671 79.937 M201.800 80.186 C 202.996 80.232,205.021 80.232,206.300 80.186 C 207.579 80.141,206.600 80.104,204.125 80.103 C 201.650 80.103,200.604 80.140,201.800 80.186 M176.938 80.437 C 178.622 80.480,181.378 80.480,183.063 80.437 C 184.747 80.393,183.369 80.358,180.000 80.358 C 176.631 80.358,175.253 80.393,176.938 80.437 M149.313 80.687 C 151.478 80.729,155.022 80.729,157.188 80.687 C 159.353 80.645,157.581 80.611,153.250 80.611 C 148.919 80.611,147.147 80.645,149.313 80.687 M120.563 80.937 C 123.278 80.978,127.722 80.978,130.438 80.937 C 133.153 80.897,130.931 80.864,125.500 80.864 C 120.069 80.864,117.847 80.897,120.563 80.937 M89.550 81.186 C 90.746 81.232,92.771 81.232,94.050 81.186 C 95.329 81.141,94.350 81.104,91.875 81.103 C 89.400 81.103,88.354 81.140,89.550 81.186 M64.202 81.437 C 65.894 81.480,68.594 81.480,70.202 81.437 C 71.810 81.393,70.425 81.358,67.125 81.358 C 63.825 81.358,62.510 81.394,64.202 81.437 M44.795 172.687 C 48.463 172.726,54.538 172.726,58.295 172.687 C 62.051 172.648,59.050 172.617,51.625 172.617 C 44.200 172.617,41.126 172.648,44.795 172.687 M71.913 172.688 C 71.849 172.791,73.558 172.846,75.711 172.811 C 82.936 172.692,83.667 172.602,77.827 172.551 C 74.638 172.523,71.977 172.584,71.913 172.688 M113.865 172.813 C 113.799 172.984,113.776 181.281,113.812 191.250 L 113.878 209.375 113.939 191.067 L 114.000 172.759 119.813 172.687 L 125.625 172.615 119.805 172.558 C 115.335 172.513,113.957 172.573,113.865 172.813 M148.830 172.687 C 152.656 172.726,158.843 172.726,162.580 172.687 C 166.317 172.648,163.188 172.617,155.625 172.617 C 148.063 172.617,145.005 172.649,148.830 172.687 M219.563 172.687 C 221.178 172.730,223.822 172.730,225.438 172.687 C 227.053 172.643,225.731 172.608,222.500 172.608 C 219.269 172.608,217.947 172.643,219.563 172.687 M284.438 172.687 C 287.497 172.727,292.503 172.727,295.563 172.687 C 298.622 172.647,296.119 172.615,290.000 172.615 C 283.881 172.615,281.378 172.647,284.438 172.687 M326.703 172.687 C 328.946 172.729,332.546 172.729,334.703 172.687 C 336.860 172.645,335.025 172.611,330.625 172.612 C 326.225 172.612,324.460 172.646,326.703 172.687 M368.453 172.687 C 370.696 172.729,374.296 172.729,376.453 172.687 C 378.610 172.645,376.775 172.611,372.375 172.612 C 367.975 172.612,366.210 172.646,368.453 172.687 M45.063 184.437 C 48.741 184.476,54.759 184.476,58.438 184.437 C 62.116 184.398,59.106 184.366,51.750 184.366 C 44.394 184.366,41.384 184.398,45.063 184.437 M153.454 184.437 C 156.385 184.477,161.110 184.477,163.954 184.437 C 166.798 184.397,164.400 184.364,158.625 184.364 C 152.850 184.364,150.523 184.397,153.454 184.437 M218.197 184.435 C 219.062 184.484,220.412 184.484,221.197 184.434 C 221.983 184.385,221.275 184.345,219.625 184.345 C 217.975 184.346,217.333 184.386,218.197 184.435 M284.454 184.437 C 287.523 184.477,292.473 184.477,295.454 184.437 C 298.436 184.397,295.925 184.365,289.875 184.365 C 283.825 184.365,281.386 184.397,284.454 184.437 M316.613 197.000 C 316.613 202.156,316.647 204.266,316.687 201.688 C 316.728 199.109,316.728 194.891,316.687 192.313 C 316.647 189.734,316.613 191.844,316.613 197.000 M274.612 196.750 C 274.612 201.356,274.646 203.241,274.687 200.938 C 274.728 198.634,274.728 194.866,274.687 192.563 C 274.646 190.259,274.612 192.144,274.612 196.750 M25.313 221.187 C 26.928 221.230,29.572 221.230,31.188 221.187 C 32.803 221.143,31.481 221.108,28.250 221.108 C 25.019 221.108,23.697 221.143,25.313 221.187 M99.455 221.187 C 103.349 221.226,109.649 221.226,113.455 221.187 C 117.261 221.149,114.075 221.117,106.375 221.117 C 98.675 221.117,95.561 221.149,99.455 221.187 M139.563 221.187 C 141.178 221.230,143.822 221.230,145.438 221.187 C 147.053 221.143,145.731 221.108,142.500 221.108 C 139.269 221.108,137.947 221.143,139.563 221.187 M181.563 221.187 C 183.178 221.230,185.822 221.230,187.438 221.187 C 189.053 221.143,187.731 221.108,184.500 221.108 C 181.269 221.108,179.947 221.143,181.563 221.187 M284.330 221.187 C 287.467 221.227,292.530 221.227,295.580 221.187 C 298.630 221.147,296.063 221.115,289.875 221.115 C 283.688 221.115,281.192 221.148,284.330 221.187 M323.938 221.187 C 326.172 221.228,329.828 221.228,332.063 221.187 C 334.297 221.146,332.469 221.112,328.000 221.112 C 323.531 221.112,321.703 221.146,323.938 221.187 M370.953 221.187 C 373.196 221.229,376.796 221.229,378.953 221.187 C 381.110 221.145,379.275 221.111,374.875 221.112 C 370.475 221.112,368.710 221.146,370.953 221.187 M185.424 261.878 C 185.195 262.358,185.060 262.750,185.123 262.750 C 185.294 262.750,186.053 261.219,185.938 261.105 C 185.884 261.051,185.653 261.399,185.424 261.878 M172.424 288.878 C 172.195 289.358,172.060 289.750,172.123 289.750 C 172.294 289.750,173.053 288.219,172.938 288.105 C 172.884 288.051,172.653 288.399,172.424 288.878 M169.424 295.128 C 169.195 295.608,169.060 296.000,169.123 296.000 C 169.294 296.000,170.053 294.469,169.938 294.355 C 169.884 294.301,169.653 294.649,169.424 295.128 M181.000 297.750 C 180.706 298.163,180.522 298.500,180.591 298.500 C 180.660 298.500,180.956 298.163,181.250 297.750 C 181.544 297.337,181.728 297.000,181.659 297.000 C 181.590 297.000,181.294 297.337,181.000 297.750 M145.401 345.542 C 145.472 345.656,145.428 345.750,145.305 345.750 C 145.181 345.750,144.941 346.059,144.771 346.438 C 144.601 346.816,144.556 347.012,144.672 346.875 C 144.788 346.738,145.136 346.334,145.446 345.979 C 145.865 345.498,145.915 345.333,145.640 345.333 C 145.438 345.333,145.330 345.427,145.401 345.542 " stroke="none" fill="#3a8ccc" fill-rule="evenodd"></path><path id="path4" d="M330.452 78.937 C 332.144 78.980,334.844 78.980,336.452 78.937 C 338.060 78.893,336.675 78.858,333.375 78.858 C 330.075 78.858,328.760 78.894,330.452 78.937 M303.813 79.187 C 305.291 79.231,307.709 79.231,309.188 79.187 C 310.666 79.142,309.456 79.106,306.500 79.106 C 303.544 79.106,302.334 79.142,303.813 79.187 M271.671 79.437 C 274.309 79.478,278.696 79.478,281.421 79.437 C 284.146 79.397,281.988 79.364,276.625 79.364 C 271.262 79.364,269.033 79.397,271.671 79.437 M245.313 79.687 C 247.616 79.728,251.384 79.728,253.688 79.687 C 255.991 79.646,254.106 79.612,249.500 79.612 C 244.894 79.612,243.009 79.646,245.313 79.687 M218.938 79.937 C 220.622 79.980,223.378 79.980,225.063 79.937 C 226.747 79.893,225.369 79.858,222.000 79.858 C 218.631 79.858,217.253 79.893,218.938 79.937 M191.549 80.186 C 193.019 80.231,195.494 80.231,197.049 80.187 C 198.603 80.143,197.400 80.107,194.375 80.107 C 191.350 80.106,190.078 80.142,191.549 80.186 M159.421 80.437 C 162.059 80.478,166.446 80.478,169.171 80.437 C 171.896 80.397,169.738 80.364,164.375 80.364 C 159.012 80.364,156.783 80.397,159.421 80.437 M133.328 80.687 C 135.640 80.728,139.353 80.728,141.578 80.687 C 143.804 80.646,141.912 80.612,137.375 80.612 C 132.838 80.612,131.017 80.646,133.328 80.687 M106.952 80.937 C 108.644 80.980,111.344 80.980,112.952 80.937 C 114.560 80.893,113.175 80.858,109.875 80.858 C 106.575 80.858,105.260 80.894,106.952 80.937 M79.299 81.186 C 80.769 81.231,83.244 81.231,84.799 81.187 C 86.353 81.143,85.150 81.107,82.125 81.107 C 79.100 81.106,77.828 81.142,79.299 81.186 M56.888 81.463 C 57.018 81.580,58.081 81.597,59.250 81.501 L 61.375 81.327 59.013 81.289 C 57.697 81.267,56.755 81.344,56.888 81.463 M249.291 128.886 C 248.872 129.805,248.952 130.001,249.405 129.165 C 249.616 128.775,249.742 128.409,249.685 128.352 C 249.628 128.295,249.450 128.535,249.291 128.886 M246.291 135.136 C 245.872 136.055,245.952 136.251,246.405 135.415 C 246.616 135.025,246.742 134.659,246.685 134.602 C 246.628 134.545,246.450 134.785,246.291 135.136 M200.115 152.313 C 200.050 152.484,200.026 164.719,200.062 179.500 L 200.127 206.375 200.189 179.317 L 200.250 152.259 206.188 152.187 L 212.125 152.116 206.180 152.058 C 201.610 152.013,200.207 152.072,200.115 152.313 M236.291 155.886 C 235.872 156.805,235.952 157.001,236.405 156.165 C 236.616 155.775,236.742 155.409,236.685 155.352 C 236.628 155.295,236.450 155.535,236.291 155.886 M233.291 162.136 C 232.872 163.055,232.952 163.251,233.405 162.415 C 233.616 162.025,233.742 161.659,233.685 161.602 C 233.628 161.545,233.450 161.785,233.291 162.136 M83.617 186.250 C 83.617 193.881,83.649 197.003,83.687 193.188 C 83.726 189.372,83.726 183.128,83.687 179.313 C 83.649 175.497,83.617 178.619,83.617 186.250 M125.620 194.375 C 125.620 206.475,125.650 211.462,125.687 205.456 C 125.725 199.451,125.725 189.551,125.687 183.456 C 125.650 177.362,125.620 182.275,125.620 194.375 M341.000 175.375 C 341.466 175.856,341.904 176.250,341.973 176.250 C 342.042 176.250,341.716 175.856,341.250 175.375 C 340.784 174.894,340.346 174.500,340.277 174.500 C 340.208 174.500,340.534 174.894,341.000 175.375 M359.109 178.063 L 358.375 178.875 359.188 178.141 C 359.945 177.456,360.115 177.250,359.922 177.250 C 359.879 177.250,359.513 177.616,359.109 178.063 M327.000 177.828 C 327.000 177.871,327.366 178.237,327.813 178.641 L 328.625 179.375 327.891 178.563 C 327.206 177.805,327.000 177.635,327.000 177.828 M374.109 179.563 L 373.375 180.375 374.188 179.641 C 374.945 178.956,375.115 178.750,374.922 178.750 C 374.879 178.750,374.513 179.116,374.109 179.563 M262.468 188.173 C 262.242 188.452,262.230 188.533,262.434 188.410 C 262.677 188.264,262.758 190.119,262.813 197.050 L 262.882 205.875 262.941 196.813 C 262.973 191.828,262.958 187.750,262.906 187.750 C 262.854 187.750,262.657 187.940,262.468 188.173 M304.863 196.875 C 304.863 201.688,304.896 203.621,304.937 201.171 C 304.978 198.722,304.978 194.784,304.937 192.421 C 304.896 190.058,304.862 192.063,304.863 196.875 M220.291 189.136 C 219.872 190.055,219.952 190.251,220.405 189.415 C 220.616 189.025,220.742 188.659,220.685 188.602 C 220.628 188.545,220.450 188.785,220.291 189.136 M363.109 191.563 L 362.375 192.375 363.188 191.641 C 363.945 190.956,364.115 190.750,363.922 190.750 C 363.879 190.750,363.513 191.116,363.109 191.563 M342.521 196.095 L 341.918 196.875 342.633 196.195 C 343.027 195.821,343.298 195.470,343.237 195.416 C 343.175 195.361,342.853 195.667,342.521 196.095 M362.875 199.250 C 363.412 199.800,363.908 200.250,363.976 200.250 C 364.045 200.250,363.662 199.800,363.125 199.250 C 362.588 198.700,362.092 198.250,362.024 198.250 C 361.955 198.250,362.338 198.700,362.875 199.250 M337.109 202.063 L 336.375 202.875 337.188 202.141 C 337.945 201.456,338.115 201.250,337.922 201.250 C 337.879 201.250,337.513 201.616,337.109 202.063 M98.579 209.437 C 101.442 209.477,106.054 209.477,108.829 209.437 C 111.604 209.397,109.263 209.364,103.625 209.364 C 97.987 209.364,95.717 209.397,98.579 209.437 M284.579 209.437 C 287.579 209.477,292.417 209.477,295.329 209.437 C 298.242 209.397,295.788 209.365,289.875 209.365 C 283.962 209.365,281.579 209.397,284.579 209.437 M374.000 211.328 C 374.000 211.371,374.366 211.737,374.813 212.141 L 375.625 212.875 374.891 212.063 C 374.206 211.305,374.000 211.135,374.000 211.328 M326.109 214.063 L 325.375 214.875 326.188 214.141 C 326.945 213.456,327.115 213.250,326.922 213.250 C 326.879 213.250,326.513 213.616,326.109 214.063 M360.000 213.828 C 360.000 213.871,360.366 214.237,360.813 214.641 L 361.625 215.375 360.891 214.563 C 360.206 213.805,360.000 213.635,360.000 213.828 M340.987 215.688 L 340.125 216.625 341.063 215.763 C 341.578 215.290,342.000 214.868,342.000 214.826 C 342.000 214.635,341.788 214.815,340.987 215.688 M204.375 216.250 C 204.912 216.800,205.408 217.250,205.476 217.250 C 205.545 217.250,205.162 216.800,204.625 216.250 C 204.088 215.700,203.592 215.250,203.524 215.250 C 203.455 215.250,203.838 215.700,204.375 216.250 M230.500 231.250 C 230.206 231.662,230.022 232.000,230.091 232.000 C 230.160 232.000,230.456 231.662,230.750 231.250 C 231.044 230.838,231.228 230.500,231.159 230.500 C 231.090 230.500,230.794 230.838,230.500 231.250 M162.291 309.636 C 161.872 310.555,161.952 310.751,162.405 309.915 C 162.616 309.525,162.742 309.159,162.685 309.102 C 162.628 309.045,162.450 309.285,162.291 309.636 M159.291 315.886 C 158.872 316.805,158.952 317.001,159.405 316.165 C 159.616 315.775,159.742 315.409,159.685 315.352 C 159.628 315.295,159.450 315.535,159.291 315.886 M149.291 336.636 C 148.872 337.555,148.952 337.751,149.405 336.915 C 149.616 336.525,149.742 336.159,149.685 336.102 C 149.628 336.045,149.450 336.285,149.291 336.636 M146.291 342.886 C 145.872 343.805,145.952 344.001,146.405 343.165 C 146.616 342.775,146.742 342.409,146.685 342.352 C 146.628 342.295,146.450 342.535,146.291 342.886 " stroke="none" fill="#2670b0" fill-rule="evenodd"></path></g></svg>